<svg width="327" height="60" viewBox="0 0 327 60" fill="none" xmlns="http://www.w3.org/2000/svg">
<g clip-path="url(#clip0_2144_13194)">
<path d="M135.899 25.113C135.899 16.1727 128.446 8.0779 116.378 2.1709C120.372 5.89603 122.643 10.1356 122.643 14.6383C122.643 29.456 98.1543 41.4711 67.9482 41.4711C37.7421 41.4711 13.2567 29.456 13.2567 14.6383C13.2567 10.1356 15.5273 5.89603 19.5215 2.1709C7.45027 8.07494 0 16.1756 0 25.113C0 43.1828 30.4219 57.8291 67.9482 57.8291C105.474 57.8291 135.902 43.1828 135.902 25.113" fill="white"/>
<path d="M103.29 14.1032C103.29 9.45265 99.3723 5.2397 93.0337 2.1709C95.1298 4.10738 96.3213 6.31585 96.3213 8.6544C96.3213 16.3619 83.4577 22.6089 67.5875 22.6089C51.7172 22.6089 38.8537 16.3619 38.8537 8.6544C38.8537 6.31289 40.0481 4.10738 42.1442 2.1709C35.8027 5.24266 31.8883 9.4556 31.8883 14.1032C31.8883 23.5017 47.8679 31.1205 67.5845 31.1205C87.3011 31.1205 103.287 23.5017 103.287 14.1032" fill="white"/>
<path d="M311.138 11.6236L326.166 0.27151H314.738L305.612 7.26912L296.452 0.27151H285.11L299.809 11.6236L285.715 22.879V4.61982C285.715 3.18821 285.079 2.02605 283.835 1.23826C282.704 0.598558 281.593 0.27151 280.53 0.27151H246.644V15.3569L228.94 0.987314C228.241 0.559477 227.402 0.275624 226.408 0.139868C225.972 0.0946163 225.573 0.0617058 225.217 0.0370229C224.847 0.0143969 224.516 0 224.232 0L223.987 0.0308524C223.134 0.246828 222.294 0.680836 221.455 1.36167C220.589 2.13713 220.151 3.05245 220.151 4.08297V17.2636H198.194V15.0874H217.16V8.89819L189.797 8.90436V19.4028C189.797 20.8344 190.433 21.9966 191.677 22.7844C192.809 23.4261 193.919 23.7511 194.983 23.7511H220.507H228.58V9.54817C229.09 9.97806 229.74 10.4944 230.571 11.1279C232.599 12.7117 234.741 14.384 236.985 16.1385C238.104 17.0353 239.163 17.8684 240.159 18.6397C241.158 19.4152 242.113 20.133 243.012 20.783C243.9 21.4268 244.778 22.0727 245.714 22.7638C246.763 23.4138 247.93 23.8334 249.135 24.0021C249.563 24.0823 249.999 24.1234 250.441 24.1234C251.268 24.1234 252.117 23.9836 252.977 23.7018L253.152 23.6277C253.668 23.3418 254.141 22.9304 254.563 22.3936C255.079 21.7271 255.341 21.0031 255.341 20.24V6.759H277.317V8.93316H258.352V15.1224H277.317V23.7511H295.923L305.605 16.2331L314.995 23.7511H326.621L311.141 11.6236H311.138Z" fill="white"/>
<path d="M218.244 0.271484H154.955V6.76103H168.068V23.7532H176.767V6.76103H218.244V0.271484Z" fill="white"/>
<path d="M184.663 59.9999C186.011 59.9999 186.831 59.5083 187.58 58.7267L186.77 57.9039C186.152 58.4798 185.587 58.8398 184.702 58.8398C183.326 58.8398 182.329 57.6879 182.329 56.279V56.2584C182.329 54.8515 183.326 53.7202 184.702 53.7202C185.525 53.7202 186.14 54.0801 186.716 54.6149L187.529 53.679C186.839 53.0208 186.037 52.5601 184.713 52.5601C182.534 52.5601 181.004 54.2344 181.004 56.281V56.3016C181.004 58.3667 182.565 59.9999 184.663 59.9999ZM189.063 59.8765H194.107V58.7267H190.326V52.6835H189.065V59.8765H189.063ZM195.579 59.8765H200.962V58.7472H196.842V56.8137H200.45V55.6845H196.842V53.8127H200.913V52.6835H195.581V59.8765H195.579ZM202.001 59.8765H203.295L204.033 58.1405H207.435L208.166 59.8765H209.5L206.337 52.6341H205.167L202.001 59.8765ZM204.498 57.0215L205.73 54.1418L206.973 57.0215H204.496H204.498ZM210.889 59.8765H212.131V54.7589L216.101 59.8765H217.158V52.6835H215.914V57.655L212.059 52.6835H210.889V59.8765ZM218.545 59.8765H219.838L220.577 58.1405H223.979L224.709 59.8765H226.044L222.879 52.6341H221.708L218.545 59.8765ZM221.042 57.0215L222.274 54.1418L223.518 57.0215H221.042ZM227.507 59.8765H228.77V52.6835H227.507V59.8765ZM230.845 59.8765H232.108V57.3691H233.69L235.459 59.8765H236.948L235.006 57.1531C236.012 56.8672 236.722 56.1596 236.722 54.9749V54.9543C236.722 54.3269 236.506 53.7921 236.127 53.4034C235.664 52.9529 234.955 52.6835 234.052 52.6835H230.847V59.8765H230.845ZM232.108 56.2502V53.8353H233.947C234.883 53.8353 235.438 54.257 235.438 55.0283V55.0489C235.438 55.7791 234.862 56.2502 233.957 56.2502H232.108ZM244.182 59.9793C245.694 59.9793 246.753 59.1792 246.753 57.834V57.8134C246.753 56.6204 245.963 56.0753 244.441 55.7071C243.063 55.378 242.734 55.1312 242.734 54.5758V54.5553C242.734 54.0822 243.166 53.7016 243.908 53.7016C244.565 53.7016 245.213 53.9608 245.862 54.4442L246.541 53.4857C245.811 52.9015 244.98 52.5827 243.931 52.5827C242.502 52.5827 241.475 53.4363 241.475 54.6684V54.689C241.475 56.0157 242.337 56.4682 243.869 56.8384C245.206 57.1449 245.494 57.4226 245.494 57.9368V57.9574C245.494 58.5025 245.001 58.8624 244.219 58.8624C243.324 58.8624 242.635 58.523 241.946 57.9265L241.187 58.8316C242.049 59.6009 243.088 59.9814 244.186 59.9814M250.094 59.9279H251.182L252.951 54.7589L254.715 59.9279H255.806L258.311 52.6835H256.986L255.271 58.017L253.502 52.665H252.432L250.665 58.017L248.95 52.6835H247.584L250.092 59.9279H250.094ZM259.763 59.8765H265.146V58.7472H261.026V56.8137H264.632V55.6845H261.026V53.8127H265.095V52.6835H259.761V59.8765H259.763ZM266.8 59.8765H272.185V58.7472H268.065V56.8137H271.671V55.6845H268.065V53.8127H272.133V52.6835H266.8V59.8765ZM273.841 59.8765H275.101V57.5666H276.531C278.115 57.5666 279.407 56.7232 279.407 55.1106V55.0901C279.407 53.6399 278.351 52.6855 276.675 52.6855H273.839V59.8785L273.841 59.8765ZM275.104 56.425V53.8353H276.574C277.52 53.8353 278.127 54.2776 278.127 55.1209V55.1415C278.127 55.8922 277.531 56.427 276.574 56.427H275.104V56.425ZM280.861 59.8765H286.244V58.7472H282.124V56.8137H285.732V55.6845H282.124V53.8127H286.192V52.6835H280.863V59.8765H280.861ZM287.9 59.8765H289.16V57.3691H290.744L292.513 59.8765H294.002L292.061 57.1531C293.069 56.8672 293.776 56.1596 293.776 54.9749V54.9543C293.776 54.3269 293.56 53.7921 293.182 53.4034C292.719 52.9529 292.011 52.6835 291.106 52.6835H287.902V59.8765H287.9ZM289.16 56.2502V53.8353H291.001C291.937 53.8353 292.493 54.257 292.493 55.0283V55.0489C292.493 55.7791 291.917 56.2502 291.012 56.2502H289.16ZM297.999 59.9793C299.511 59.9793 300.568 59.1792 300.568 57.834V57.8134C300.568 56.6204 299.778 56.0753 298.258 55.7071C296.88 55.378 296.551 55.1312 296.551 54.5758V54.5553C296.551 54.0822 296.983 53.7016 297.723 53.7016C298.382 53.7016 299.027 53.9608 299.677 54.4442L300.356 53.4857C299.626 52.9015 298.795 52.5827 297.746 52.5827C296.318 52.5827 295.29 53.4363 295.29 54.6684V54.689C295.29 56.0157 296.154 56.4682 297.684 56.8384C299.021 57.1449 299.311 57.4226 299.311 57.9368V57.9574C299.311 58.5025 298.818 58.8624 298.036 58.8624C297.139 58.8624 296.452 58.523 295.763 57.9265L295.004 58.8316C295.866 59.6009 296.903 59.9814 298.003 59.9814" fill="white"/>
<path d="M326.751 46.04H154.824V46.8278H326.751V46.04Z" fill="white"/>
<path d="M164.674 39.8898L160.073 34.2107V39.8898H158.617V31.9707H160.048L164.674 37.6601V31.9707H166.106V39.8898H164.674Z" fill="white"/>
<path d="M181.716 35.9324C181.716 38.195 179.716 39.9475 177.139 39.9475C174.562 39.9475 172.562 38.195 172.562 35.9324C172.562 33.6698 174.562 31.9399 177.139 31.9399C179.716 31.9399 181.716 33.6698 181.716 35.9324ZM174.041 35.9324C174.041 37.5039 175.461 38.7483 177.151 38.7483C178.842 38.7483 180.224 37.5039 180.224 35.9324C180.224 34.3609 178.842 33.1391 177.151 33.1391C175.461 33.1391 174.041 34.3609 174.041 35.9324Z" fill="white"/>
<path d="M192.056 37.4916C191.932 37.5018 191.796 37.5018 191.661 37.5018H189.612V39.8879H188.156V31.9688H191.659C193.868 31.9688 195.139 32.952 195.139 34.6715C195.139 35.9386 194.497 36.8313 193.349 37.2386L195.287 39.8858H193.633L192.054 37.4874L192.056 37.4916ZM191.661 36.3047C192.994 36.3047 193.759 35.7843 193.759 34.7106C193.759 33.6369 192.994 33.172 191.661 33.172H189.612V36.3047H191.661Z" fill="white"/>
<path d="M205.123 33.1718V39.8918H203.667V33.1718H200.939V31.9727H207.861V33.1718H205.121H205.123Z" fill="white"/>
<path d="M220.03 39.8898V36.609H215.453V39.8898H213.997V31.9707H215.453V35.4099H220.03V31.9707H221.486V39.8898H220.03Z" fill="white"/>
<path d="M237.935 38.1023L237.108 39.8898H235.59L239.404 31.9707H240.897L244.671 39.8898H243.116L242.29 38.1023H237.935ZM240.105 33.3982L238.476 36.9155H241.734L240.105 33.3982Z" fill="white"/>
<path d="M258.49 39.8898L258.478 33.9741L255.75 39.065H254.8L252.072 33.9741V39.8898H250.702V31.9707H252.43L255.281 37.2302L258.12 31.9707H259.835V39.8898H258.49Z" fill="white"/>
<path d="M268.462 33.1719V35.3091H272.68V36.5082H268.462V38.6906H273.322V39.8898H267.005V31.9707H273.174V33.1699H268.462V33.1719Z" fill="white"/>
<path d="M283.884 37.4916C283.761 37.5018 283.625 37.5018 283.489 37.5018H281.441V39.8879H279.984V31.9688H283.489C285.699 31.9688 286.97 32.952 286.97 34.6715C286.97 35.9386 286.328 36.8313 285.18 37.2386L287.118 39.8858H285.464L283.884 37.4874V37.4916ZM283.489 36.3047C284.822 36.3047 285.588 35.7843 285.588 34.7106C285.588 33.6369 284.822 33.172 283.489 33.172H281.441V36.3047H283.489Z" fill="white"/>
<path d="M293.795 39.8898V31.9707H295.251V39.8898H293.795Z" fill="white"/>
<path d="M309.513 33.1593L308.662 34.1322C308.032 33.511 307.132 33.1264 306.255 33.1264C304.528 33.1264 303.17 34.3482 303.17 35.9094C303.17 37.4706 304.528 38.7027 306.255 38.7027C307.119 38.7027 308.008 38.3407 308.662 37.7647L309.526 38.6471C308.65 39.439 307.403 39.9471 306.183 39.9471C303.653 39.9471 301.693 38.1946 301.693 35.9197C301.693 33.6447 303.68 31.9375 306.233 31.9375C307.455 31.9375 308.676 32.4003 309.516 33.1593H309.513Z" fill="white"/>
<path d="M317.054 38.1023L316.227 39.8898H314.709L318.523 31.9707H320.016L323.791 39.8898H322.236L321.409 38.1023H317.054ZM319.224 33.3982L317.595 36.9155H320.853L319.224 33.3982Z" fill="white"/>
</g>
<defs>
<clipPath id="clip0_2144_13194">
<rect width="326.75" height="60" fill="white"/>
</clipPath>
</defs>
</svg>
