<svg width="197" height="81" viewBox="0 0 197 81" fill="none" xmlns="http://www.w3.org/2000/svg">
<path d="M48.949 16.6443V15.8618L44.533 12.2529V12.5696L38.8323 16.4681V16.9339L44.533 13.0336L48.949 16.6443Z" fill="#E6E7E8"/>
<path d="M48.949 17.8789V17.0964L44.533 13.5654V13.8821L38.8323 17.7214V18.1854L44.533 14.3461L48.949 17.8789Z" fill="#E6E7E8"/>
<path d="M48.949 19.1203V18.3396L44.533 14.8848V15.2015L38.8323 18.9831V19.4455L44.533 15.6655L48.949 19.1203Z" fill="#E6E7E8"/>
<path d="M48.949 20.3583V19.5776L44.533 16.2007V16.5174L38.8323 20.2398V20.7021L44.533 16.9814L48.949 20.3583Z" fill="#E6E7E8"/>
<path d="M48.949 21.5963V20.8156L44.533 17.5166V17.8333L38.8323 21.4964V21.9587L44.533 18.2973L48.949 21.5963Z" fill="#E6E7E8"/>
<path d="M48.949 22.8343V22.0553L44.533 18.8325V19.1492L38.8323 22.753V23.2154L44.533 19.6115L48.949 22.8343Z" fill="#E6E7E8"/>
<path d="M48.949 24.0721V23.2931L44.533 20.1499V20.4666L38.8323 24.0095V24.4718L44.533 20.9272L48.949 24.0721Z" fill="#E6E7E8"/>
<path d="M37.2582 25.2305L40.7011 27.0596V27.3729L44.533 24.8749L48.9508 27.7861V27.0088L44.533 24.0976V24.4143L40.7011 26.9122V25.9892L44.533 23.559L48.9508 26.5464V25.7691L44.533 22.7817V23.0984L40.5816 25.6031L39.7549 25.1645L44.533 22.2432L48.9508 25.3084V24.5311L44.533 21.4658V21.7825L39.3509 24.9494L37.2582 23.8368C35.4516 22.8782 33.2882 22.8935 31.4969 23.8791V24.8089L27.0219 27.2713V27.7353L31.4969 25.2729C33.2882 24.2872 35.4516 24.2703 37.2582 25.2305Z" fill="#E6E7E8"/>
<path d="M37.2026 27.7233L40.6994 29.5388V29.8691L44.5313 27.4896L48.9491 30.245V29.6015L54.1564 26.6496L58.5237 29.1612V28.3804L54.1564 25.8689V26.2957L48.9491 29.2475V29.4677L44.5313 26.7123V27.029L40.6994 29.4084V28.6209L44.5313 26.1822L48.9491 29.0155V28.3381L54.1564 25.2897L58.5237 27.8182V27.0358L54.1564 24.5073V24.9341L48.9491 27.9825V28.2382L44.5313 25.4049V25.7216L40.6994 28.1603V28.1433L37.2026 26.3279C35.4281 25.3998 33.3101 25.4134 31.5457 26.3634V27.2932L27.0201 29.7166V30.179L31.5457 27.7555C33.3084 26.8038 35.4264 26.7919 37.2026 27.72" fill="#E6E7E8"/>
<path d="M37.1487 30.2164L40.6994 32.02V32.3655L44.5313 30.1047L48.9491 32.7042V32.1301L54.1564 29.373L58.522 31.8507V31.0734L54.1564 28.5957V29.0225L48.9491 31.7796V31.9286L44.5313 29.329V29.6457L40.6994 31.9066V31.1174L44.5313 28.7972L48.9491 31.4747V30.8667L54.1564 28.0114L58.522 30.506V29.727L54.1564 27.2324V27.6592L48.9491 30.5145V30.6991L44.5313 28.0216V28.3383L40.6994 30.6584V30.628L37.1487 28.8243C35.4045 27.9268 33.332 27.9369 31.5979 28.8531V29.7829L27.0201 32.1674V32.6297L31.5979 30.2469C33.332 29.3307 35.4045 29.3205 37.1487 30.2181" fill="#E6E7E8"/>
<path d="M37.0949 32.7093L40.0496 34.1775L40.7011 33.8067V33.6119L44.533 31.4103L48.9508 33.932V33.3917L54.1582 30.7312L58.5238 33.1919V32.4163L54.1582 29.9556V30.3823L48.9508 33.0429V33.1563L44.533 30.6347V30.9514L40.7011 33.153V33.1089L37.0966 31.3189C35.3826 30.4518 33.3573 30.4602 31.6518 31.3409V32.2706L27.0236 34.6145V35.0751L31.6518 32.7313C33.3573 31.8506 35.3826 31.8422 37.0966 32.7076" fill="#E6E7E8"/>
<path d="M30.8352 39.3107V38.1303L31.7511 37.7035C33.3993 36.8923 35.3321 36.8889 36.9854 37.6934L38.1101 38.2438V38.6384L43.0413 36.0777L46.752 37.9847V36.5943L43.0413 34.6873V35.6323L38.1101 38.193V36.8551L36.9854 36.3047C35.3321 35.5002 33.3993 35.5036 31.7511 36.3148V37.1718L30.5322 37.7493L28.6701 36.7094L31.6989 35.2174C33.3758 34.3707 35.3557 34.3656 37.0393 35.2005L38.1101 35.7627V35.297L38.9317 34.8432L37.041 33.8118C35.3574 32.9752 33.3774 32.982 31.7006 33.8287V34.7585L28.234 36.4656L25.7423 35.0735V35.9998L17.3378 40.5825V41.0483L25.7423 36.4656L30.8369 39.3107H30.8352Z" fill="#E6E7E8"/>
<path d="M30.8352 41.1089V40.7347L31.8033 40.191C33.4229 39.4154 35.3102 39.4137 36.9332 40.1876L38.1117 40.7262V40.589L43.043 38.1961L46.7536 39.9607V38.5703L43.043 36.8057V37.7507L38.1117 40.1436V39.3375L36.9332 38.8006C35.3102 38.0267 33.4246 38.0284 31.8033 38.804V39.6271L30.8352 40.1707V39.7202L25.7406 37.019V37.9454L17.3361 42.3605V42.8262L25.7406 38.4111L30.8352 41.1123V41.1089Z" fill="#E6E7E8"/>
<path d="M30.8352 42.9075V43.231L31.8538 42.6772C33.4448 41.9354 35.2849 41.9371 36.8776 42.6806L38.11 43.2056V42.5383L43.0413 40.313L46.752 41.9337V40.545L43.0413 38.9243V39.8693L38.11 42.0946V41.8186L36.8776 41.2936C35.2849 40.5501 33.4448 40.5484 31.8538 41.2902V42.1115L30.8352 42.6653V41.5171L25.7406 38.9599V39.8862L17.3361 44.1353V44.5993L25.7406 40.352L30.8352 42.9092V42.9075Z" fill="#E6E7E8"/>
<path d="M30.8352 44.7063V43.3176L25.7423 40.9043V41.8307L17.3378 45.9104V46.3727L25.7423 42.293L30.8352 44.7063Z" fill="#E6E7E8"/>
<path d="M30.8352 46.5048V45.7648L31.906 45.1636C33.4683 44.4574 35.2631 44.4607 36.8238 45.1737L38.1117 45.6852V44.4862L43.043 42.4285L46.7536 43.9053V42.5183L43.043 41.0415V41.9865L38.1117 44.0441V44.2999L36.8238 43.7884C35.2631 43.0754 33.4683 43.072 31.906 43.7783V44.5996L30.8352 45.2008V45.1178L25.7406 42.8468V43.7732L17.3361 47.6869V48.1476L25.7406 44.2338L30.8352 46.5048Z" fill="#E6E7E8"/>
<path d="M30.8352 48.3032V48.2151L31.9565 47.6495C33.4902 46.9788 35.2378 46.9839 36.7699 47.6664L38.1117 48.166V48.3845L43.043 46.6604L44.5178 47.1329L46.7536 46.4657L43.043 45.2751V46.2201L38.1117 47.9441V46.7807L36.7699 46.2811C35.2395 45.5986 33.4902 45.5935 31.9565 46.2642V47.0872L30.8352 47.6529V46.9196L25.7406 44.7925V45.7188L17.3361 49.4649V49.9256L25.7406 46.1795L30.8352 48.3066V48.3032Z" fill="#E6E7E8"/>
<path d="M28.8991 49.3482L30.7308 48.6759L25.7423 46.7334V47.6598L17.3378 51.2382V51.6971L25.7423 48.1187L28.8991 49.3482Z" fill="#E6E7E8"/>
<path d="M26.611 50.3744L28.4293 49.6479L25.7423 48.6758V49.6021L17.3378 53.0146V53.4719L25.7423 50.0611L26.611 50.3744Z" fill="#E6E7E8"/>
<path d="M43.043 44.1034L38.1117 45.9934V46.4354L43.043 44.5437L46.7519 45.8782V44.4912L43.043 43.1567V44.1034Z" fill="#E6E7E8"/>
<path d="M61.5004 35.2851L55.7357 32.2029L54.1565 31.3188V31.7456L48.9491 34.3096V34.3875L44.5314 31.9438V32.2605L43.272 32.8955L43.0363 32.7787L43.0414 33.5171L38.1101 36.2436V36.6907L43.0414 33.9641L46.752 36.015V36.5688L47.1511 36.7923L46.7689 36.9719V37.4173L55.4815 33.3189L61.5004 36.5366V35.2834V35.2851ZM46.752 35.7949V35.2377L48.4525 36.1793L47.9019 36.4384L46.752 35.7949ZM54.9259 33.1343L54.1565 32.7042V33.1309L48.9525 35.6932L48.9491 35.6797L44.5314 33.2359L44.262 33.3867L43.73 33.1225L44.533 32.7177L48.9508 35.1615V34.6551L54.1582 32.0911L55.4815 32.8312V32.8718L54.9276 33.1326L54.9259 33.1343Z" fill="#E6E7E8"/>
<path d="M61.5003 37.2933L55.4814 34.25V34.8969L46.7688 38.726V39.3441L55.4814 35.5286L61.5003 38.5567V37.2933Z" fill="#E6E7E8"/>
<path d="M61.5003 39.3679L55.4814 36.499V37.1138L46.7688 40.6753V41.2714L55.4814 37.7387L61.5003 40.5771V39.3679Z" fill="#E6E7E8"/>
<path d="M61.5003 41.4425L55.4814 38.748V39.3272L46.7688 42.6212V43.197L55.4814 39.9505L61.5003 42.5974V41.4425Z" fill="#E6E7E8"/>
<path d="M55.4814 41.5356L46.7688 44.5603V45.1242L55.4814 42.1605L61.5003 44.6178V43.517L55.4814 40.9971V41.5356Z" fill="#E6E7E8"/>
<path d="M54.7727 44.5589L55.4815 44.3726L61.5004 46.6403V45.5936L55.4815 43.2007L55.505 43.6681L53.8753 44.227L53.5487 44.1067V44.901L36.7935 50.2847V49.2872L35.3641 48.642C34.0644 48.0543 32.5862 48.0848 31.2511 48.5878V48.9841L15.4033 54.9555V55.2637L23.3533 52.4863L31.3033 49.7089C32.6064 49.2246 34.0442 49.1839 35.3203 49.7377L36.7295 50.3491V50.7623L53.5453 45.4277L65.1201 49.7293V48.4117L54.7676 44.5657L54.7727 44.5589Z" fill="#E6E7E8"/>
<path d="M53.4881 47.3158L36.7935 51.5919V51.0602L35.3523 50.5792C34.3775 50.1389 32.2747 50.1897 31.273 50.5673V50.9636L15.4033 55.4786V55.7953L23.3617 53.7122L26.0656 53.0043L31.3201 51.6292C32.2966 51.2651 34.3523 51.216 35.3102 51.6309L36.7918 52.1084V52.0119L53.547 47.8221L65.1218 51.2634V49.9475L53.4864 46.5215V47.3158H53.4881Z" fill="#E6E7E8"/>
<path d="M53.5487 49.7056L36.7935 52.9623V52.8387L35.3406 52.522C34.6907 52.229 31.9616 52.3001 31.2949 52.5525V52.9487L15.405 56.009V56.3341L23.3718 54.9454L26.0774 54.4729L31.337 53.555C31.9885 53.3129 34.6604 53.2536 35.2985 53.5313L36.7935 53.8497V53.3654L53.5487 50.2222L65.1235 52.8031V51.4906L53.5487 48.9097V49.7022V49.7056Z" fill="#E6E7E8"/>
<path d="M53.5487 52.1085L36.7329 54.3321V54.6065L35.3288 54.4625C35.0038 54.3152 31.6501 54.41 31.3168 54.5353V54.9316L15.405 56.5371V56.8724L23.3803 56.1781L26.0892 55.9427L31.3555 55.4837C31.6821 55.3618 34.9702 55.294 35.2884 55.4329L36.7952 55.5921V54.7199L53.5504 52.625L65.1252 54.3457V53.0365L53.5504 51.3159V52.1102L53.5487 52.1085Z" fill="#E6E7E8"/>
<path d="M53.5487 54.5135L36.7329 55.6702V56.0783L53.5487 55.0266L65.1235 55.887V54.5796L53.5487 53.7192V54.5135Z" fill="#E6E7E8"/>
<path d="M53.5487 56.9166H36.7935V56.4847L31.4043 56.417L31.3976 56.9318L15.405 57.0843V57.4263H26.0993H36.7329H36.7935H53.5487H65.1235V56.124H53.5487V56.9166Z" fill="#E6E7E8"/>
<path d="M40.265 6.60986C21.6865 6.60986 6.57275 21.8127 6.57275 40.5008C6.57275 59.189 21.6865 74.3918 40.265 74.3918C58.8436 74.3918 73.9573 59.189 73.9573 40.5008C73.9573 21.8127 58.8419 6.60986 40.265 6.60986ZM40.265 73.5383C22.1545 73.5383 7.41961 58.7182 7.41961 40.4992C7.41961 22.2801 22.1545 7.46171 40.265 7.46171C58.3755 7.46171 73.1104 22.2835 73.1104 40.5008C73.1104 58.7182 58.3772 73.54 40.265 73.54" fill="#E6E7E8"/>
<path d="M80.525 42.0081V38.9919L77.7538 38.6989C77.7168 37.9284 77.6528 37.1561 77.5669 36.3822L80.2624 35.6556L79.7927 32.6767L77.0063 32.8224C76.8497 32.0603 76.6729 31.3067 76.4726 30.5598L79.0165 29.4201L78.0905 26.5512L75.3732 27.1321C75.1005 26.4039 74.8075 25.6858 74.491 24.9779L76.8177 23.4571L75.4557 20.7695L72.8697 21.767C72.4875 21.0913 72.0818 20.4291 71.6575 19.7805L73.7165 17.9142L71.9538 15.4738L69.5496 16.8693C69.0664 16.2664 68.5647 15.6753 68.0428 15.1012L69.7921 12.9284L67.6724 10.7963L65.5073 12.5592C64.9382 12.041 64.3506 11.5397 63.7462 11.0537L65.1419 8.62178L62.7159 6.84865L60.8488 8.93339C60.2023 8.50662 59.5473 8.09848 58.8806 7.71404L59.8773 5.09923L57.2054 3.72916L55.6919 6.07301C54.9865 5.75124 54.2743 5.45318 53.5537 5.17882L54.1295 2.44885L51.2775 1.51741L50.1495 4.06279C49.4036 3.85787 48.6527 3.67666 47.8968 3.51916L48.0416 0.734993L45.0801 0.262498L44.3612 2.9603C43.5952 2.87731 42.8258 2.81635 42.053 2.78078L41.7618 0H38.7633L38.472 2.78756C37.706 2.82651 36.9366 2.88917 36.1688 2.97554L35.4466 0.264191L32.4851 0.736687L32.6299 3.53948C31.8723 3.69698 31.1231 3.8748 30.3806 4.07633L29.2475 1.51741L26.3955 2.44885L26.973 5.18221C26.249 5.45656 25.5352 5.75124 24.8331 6.06962L23.3213 3.72916L20.6494 5.09923L21.641 7.7005C20.971 8.08662 20.311 8.49307 19.6662 8.91984L17.8108 6.84865L15.3848 8.62178L16.772 11.0401C16.1727 11.5262 15.5851 12.0309 15.0144 12.5559L12.8543 10.7963L10.7346 12.9284L12.4873 15.1063C11.9721 15.6787 11.4738 16.2698 10.9906 16.8778L8.5729 15.4738L6.81017 17.9142L8.88269 19.7923C8.45842 20.4426 8.05267 21.1014 7.67049 21.7721L5.07101 20.7695L3.70898 23.4571L6.03908 24.9796C5.7192 25.6875 5.42288 26.4056 5.15014 27.1304L2.43617 26.5512L1.51019 29.4201L4.04065 30.5547C3.83693 31.305 3.65678 32.0603 3.50021 32.8224L0.732367 32.6767L0.262642 35.6556L2.94294 36.3788C2.86044 37.1493 2.79983 37.9233 2.76448 38.7006L0 38.9936V42.0098L2.77121 42.3028C2.80993 43.0733 2.87223 43.8473 2.95809 44.6195L0.262642 45.346L0.732367 48.325L3.51873 48.1793C3.6753 48.9414 3.85208 49.695 4.05411 50.4419L1.51019 51.5816L2.43617 54.4505L5.15351 53.8696C5.42625 54.5978 5.72088 55.3159 6.03572 56.0221L3.70898 57.5429L5.07101 60.2305L7.65702 59.233C8.04089 59.9087 8.44495 60.5709 8.86922 61.2195L6.81017 63.0858L8.5729 65.5262L10.9771 64.1307C11.4603 64.7353 11.962 65.3247 12.4839 65.8988L10.7346 68.0716L12.8543 70.2054L15.0194 68.4425C15.5885 68.9607 16.1761 69.462 16.7805 69.948L15.3848 72.3799L17.8108 74.153L19.6813 72.0649C20.3261 72.4917 20.9794 72.9049 21.6461 73.2893L20.6494 75.9042L23.3213 77.2725L24.8382 74.9253C25.5419 75.2471 26.2524 75.5485 26.973 75.8246L26.3972 78.5528L29.2492 79.4843L30.3789 76.9338C31.1231 77.1387 31.874 77.3233 32.6299 77.4808L32.4851 80.265L35.4466 80.7375L36.1671 78.0363C36.9332 78.1193 37.7009 78.182 38.4737 78.2175L38.7649 81H41.7634L42.0564 78.2074C42.8224 78.1684 43.5901 78.1125 44.3596 78.0279L45.0818 80.7375L48.0433 80.265L47.8985 77.4622C48.6561 77.3047 49.4053 77.1269 50.1478 76.9254L51.2808 79.4843L54.1329 78.5528L53.5554 75.8195C54.2793 75.5451 54.9932 75.2488 55.6969 74.9321L57.2088 77.2725L59.8807 75.9042L58.889 73.3029C59.5591 72.9185 60.2191 72.5103 60.8639 72.0836L62.7192 74.1547L65.1453 72.3816L63.758 69.9632C64.3591 69.4772 64.945 68.9725 65.5157 68.4475L67.6758 70.2071L69.7954 68.0733L68.0428 65.8954C68.558 65.323 69.0563 64.7319 69.5395 64.1239L71.9572 65.5279L73.7199 63.0875L71.6474 61.2094C72.0717 60.5591 72.4774 59.9003 72.8596 59.2296L75.4591 60.2322L76.8211 57.5446L74.491 56.0221C74.8109 55.3142 75.1072 54.5961 75.3816 53.8713L78.0956 54.4505L79.0216 51.5816L76.4911 50.447C76.6948 49.6967 76.875 48.9414 77.0315 48.1793L79.7994 48.325L80.2691 45.346L77.5888 44.6229C77.6713 43.8524 77.7319 43.0784 77.7673 42.3011L80.5318 42.0081H80.525ZM68.6556 61.7445C63.0139 69.3722 54.7575 74.3343 45.4051 75.7162C36.0527 77.0981 26.7272 74.7322 19.1442 69.0589C11.5613 63.3839 6.62834 55.0788 5.25452 45.6729C3.8807 36.2653 6.2327 26.8848 11.8728 19.2572C17.5145 11.6295 25.7709 6.66744 35.1216 5.28552C36.8658 5.0281 38.6067 4.90109 40.3374 4.90109C47.8884 4.90109 55.2137 7.32792 61.3825 11.9428C68.9654 17.6178 73.8984 25.9229 75.2722 35.3305C76.646 44.7381 74.294 54.1185 68.6539 61.7462" fill="#E6E7E8"/>
<path d="M102.565 36.2956H98.4066V34.1042C98.4066 33.1338 98.2584 32.536 96.9452 32.536C95.7566 32.536 95.6337 33.2828 95.6337 34.1296V42.8699C95.6337 43.9911 95.7818 44.6126 97.0445 44.6126C98.4066 44.6126 98.4066 43.7404 98.4066 42.8699V40.6785H102.664V42.2467C102.664 45.583 101.897 47.6 96.9452 47.6C92.2917 47.6 91.4247 45.8319 91.4247 43.0681V34.4023C91.4247 33.1575 91.5493 32.1109 92.2917 31.1896C93.6033 29.5706 95.8071 29.4707 97.0445 29.4707C98.5547 29.4707 100.09 29.6943 101.228 30.6409C102.491 31.6621 102.565 33.1067 102.565 34.2024V36.2939V36.2956Z" fill="#E6E7E8"/>
<path d="M109.17 29.7974V47.3779H104.937V29.7974H109.17Z" fill="#E6E7E8"/>
<path d="M111.281 29.772H122.519V32.8593H119.029V47.3762H114.746V32.8593H111.279V29.772H111.281Z" fill="#E6E7E8"/>
<path d="M132.565 29.7974H136.774L132.417 41.1779V47.3779H128.307V41.1779L124.124 29.7974H128.307L130.437 37.5673L132.567 29.7974H132.565Z" fill="#E6E7E8"/>
<path d="M149.325 29.7974L151.182 43.4184H151.381L153.188 29.7974H157.445L154.326 47.3779H148.31L145.042 29.7974H149.325Z" fill="#E6E7E8"/>
<path d="M163.671 29.7974V47.3779H159.439V29.7974H163.671Z" fill="#E6E7E8"/>
<path d="M175.378 29.772V32.8847H170.574V36.9187H175.105V40.0314H170.574V44.2652H175.378V47.3779H166.342V29.7737H175.378V29.772Z" fill="#E6E7E8"/>
<path d="M177.048 29.772H181.058L182.321 43.3677H182.519L184.55 29.772H189.427L191.828 43.3677H191.976L192.941 29.772H197L194.895 47.3762H189.424L187.047 33.6315L184.769 47.3762H179.273L177.046 29.772H177.048Z" fill="#E6E7E8"/>
<path d="M127.306 55.6425C127.306 57.5731 126.029 58.7942 123.996 58.7942C121.962 58.7942 120.644 57.5731 120.644 55.6425V51.4053H122.49V55.6425C122.49 56.6349 123.124 57.2395 124.006 57.2395C124.888 57.2395 125.469 56.6332 125.469 55.6425V51.4053H127.306V55.6425Z" fill="#E6E7E8"/>
<path d="M134.291 52.1354L133.596 53.5867C132.828 53.138 131.863 52.8247 131.27 52.8247C130.792 52.8247 130.471 53.0025 130.471 53.3564C130.471 54.6198 134.311 53.9001 134.311 56.5403C134.311 58.0018 133.025 58.774 131.405 58.774C130.191 58.774 128.945 58.3151 128.085 57.6055L128.801 56.1762C129.548 56.8333 130.668 57.2719 131.425 57.2719C132.006 57.2719 132.37 57.0534 132.37 56.6351C132.37 55.3412 128.53 56.1135 128.53 53.5241C128.53 52.1777 129.681 51.3208 131.425 51.3208C132.474 51.3208 133.542 51.6443 134.289 52.1354H134.291Z" fill="#E6E7E8"/>
<path d="M136.936 57.365L136.407 58.7114H134.508L137.641 51.4038H139.54L142.601 58.7114H140.63L140.111 57.365H136.936ZM138.535 53.2531L137.476 55.956H139.572L138.535 53.2531Z" fill="#E6E7E8"/>
<path d="M144.669 57.9189C144.669 58.1797 144.576 58.3999 144.44 58.6082L143.682 59.7141H142.832L143.298 58.5964C143.059 58.4405 142.956 58.1899 142.956 57.9172C142.956 57.416 143.32 57.062 143.818 57.062C144.275 57.062 144.669 57.3652 144.669 57.9172V57.9189Z" fill="#E6E7E8"/>
<path d="M148.186 58.7129V51.4053H150.032V58.7129H148.186Z" fill="#E6E7E8"/>
<path d="M157.183 55.1634V58.713H155.398V55.6647C155.398 55.0076 155.014 54.5994 154.412 54.5994C153.758 54.5994 153.342 55.0686 153.27 55.7375V58.713H151.475V53.0871H153.27V54.005C153.664 53.3479 154.307 53.0126 155.137 53.0024C156.371 53.0024 157.181 53.8475 157.181 55.1634H157.183Z" fill="#E6E7E8"/>
<path d="M163.388 54.2861L162.102 55.0685C161.843 54.7027 161.459 54.4842 160.971 54.4842C160.276 54.4842 159.797 55.0583 159.797 55.9034C159.797 56.7485 160.276 57.3327 160.971 57.3327C161.479 57.3327 161.873 57.1244 162.112 56.696L163.42 57.4682C162.964 58.293 162.062 58.7722 160.878 58.7722C159.156 58.7722 157.993 57.624 157.993 55.9119C157.993 54.1997 159.166 53.021 160.898 53.021C162.01 53.021 162.902 53.4799 163.388 54.2844V54.2861Z" fill="#E6E7E8"/>
<path d="M165.703 57.9188C165.703 58.4405 165.34 58.7961 164.831 58.7961C164.323 58.7961 163.969 58.4405 163.969 57.9188C163.969 57.3972 164.323 57.0518 164.831 57.0518C165.34 57.0518 165.703 57.4074 165.703 57.9188Z" fill="#E6E7E8"/>
</svg>
