<svg width="29" height="29" viewBox="0 0 29 29" fill="none" xmlns="http://www.w3.org/2000/svg">
<path d="M18.9 14.4C18.9 15.5935 18.4259 16.7381 17.582 17.582C16.7381 18.4259 15.5935 18.9 14.4 18.9C13.2065 18.9 12.0619 18.4259 11.218 17.582C10.3741 16.7381 9.9 15.5935 9.9 14.4C9.901 14.143 9.9255 13.893 9.9735 13.65H8.4V19.6455C8.4 20.0625 8.7375 20.4 9.1545 20.4H19.647C19.8468 20.3996 20.0384 20.3199 20.1795 20.1785C20.3207 20.037 20.4 19.8453 20.4 19.6455V13.65H18.8265C18.8745 13.893 18.899 14.143 18.9 14.4ZM14.4 17.4C14.7941 17.3999 15.1843 17.3222 15.5483 17.1713C15.9123 17.0204 16.2431 16.7993 16.5216 16.5206C16.8002 16.2419 17.0212 15.911 17.1719 15.5469C17.3226 15.1828 17.4001 14.7926 17.4 14.3985C17.3999 14.0044 17.3222 13.6142 17.1713 13.2502C17.0204 12.8862 16.7993 12.5554 16.5206 12.2769C16.2419 11.9983 15.911 11.7773 15.5469 11.6266C15.1828 11.4759 14.7926 11.3984 14.3985 11.3985C13.6027 11.3987 12.8395 11.715 12.2769 12.2779C11.7143 12.8408 11.3983 13.6042 11.3985 14.4C11.3987 15.1958 11.715 15.959 12.2779 16.5216C12.8408 17.0842 13.6042 17.4002 14.4 17.4ZM18 11.25H19.7985C19.8577 11.2502 19.9164 11.2387 19.9712 11.2162C20.0259 11.1937 20.0757 11.1605 20.1177 11.1187C20.1596 11.0769 20.1929 11.0272 20.2156 10.9726C20.2383 10.9179 20.25 10.8592 20.25 10.8V9.0015C20.2502 8.94215 20.2387 8.88335 20.216 8.82848C20.1934 8.77362 20.1602 8.72376 20.1182 8.6818C20.0762 8.63983 20.0264 8.60658 19.9715 8.58396C19.9166 8.56134 19.8578 8.5498 19.7985 8.55H18C17.9407 8.5498 17.8819 8.56134 17.827 8.58396C17.7721 8.60658 17.7223 8.63983 17.6803 8.6818C17.6383 8.72376 17.6051 8.77362 17.5825 8.82848C17.5598 8.88335 17.5483 8.94215 17.5485 9.0015V10.8C17.55 11.0475 17.7525 11.25 18 11.25ZM14.4 0C10.5809 0 6.91819 1.51714 4.21766 4.21766C1.51714 6.91819 0 10.5809 0 14.4C0 18.2191 1.51714 21.8818 4.21766 24.5823C6.91819 27.2829 10.5809 28.8 14.4 28.8C16.291 28.8 18.1636 28.4275 19.9106 27.7039C21.6577 26.9802 23.2452 25.9195 24.5823 24.5823C25.9195 23.2452 26.9802 21.6577 27.7039 19.9106C28.4275 18.1636 28.8 16.291 28.8 14.4C28.8 12.509 28.4275 10.6364 27.7039 8.88936C26.9802 7.14227 25.9195 5.55483 24.5823 4.21766C23.2452 2.8805 21.6577 1.8198 19.9106 1.09613C18.1636 0.372467 16.291 0 14.4 0ZM21.9 20.2335C21.9 21.15 21.15 21.9 20.2335 21.9H8.5665C7.65 21.9 6.9 21.15 6.9 20.2335V8.5665C6.9 7.65 7.65 6.9 8.5665 6.9H20.2335C21.15 6.9 21.9 7.65 21.9 8.5665V20.2335Z" fill="#F1F1F1"/>
</svg>
