<svg width="29" height="29" viewBox="0 0 29 29" fill="none" xmlns="http://www.w3.org/2000/svg">
<path d="M16.8045 14.1495L13.4355 12.5775C13.1415 12.441 12.9 12.594 12.9 12.9195V15.8805C12.9 16.206 13.1415 16.359 13.4355 16.2225L16.803 14.6505C17.0985 14.5125 17.0985 14.2875 16.8045 14.1495ZM14.4 0C6.447 0 0 6.447 0 14.4C0 22.353 6.447 28.8 14.4 28.8C22.353 28.8 28.8 22.353 28.8 14.4C28.8 6.447 22.353 0 14.4 0ZM14.4 20.25C7.029 20.25 6.9 19.5855 6.9 14.4C6.9 9.2145 7.029 8.55 14.4 8.55C21.771 8.55 21.9 9.2145 21.9 14.4C21.9 19.5855 21.771 20.25 14.4 20.25Z" fill="#F1F1F1"/>
</svg>
