<svg width="13" height="19" viewBox="0 0 13 19" fill="none" xmlns="http://www.w3.org/2000/svg">
<path fill-rule="evenodd" clip-rule="evenodd" d="M11.2273 3.8V15.2C11.2273 15.7039 11.0405 16.1872 10.7081 16.5435C10.3756 16.8998 9.9247 17.1 9.45455 17.1H3.54545C3.0753 17.1 2.6244 16.8998 2.29195 16.5435C1.9595 16.1872 1.77273 15.7039 1.77273 15.2V3.8C1.77273 3.29609 1.9595 2.81282 2.29195 2.4565C2.6244 2.10018 3.0753 1.9 3.54545 1.9H9.45455C9.9247 1.9 10.3756 2.10018 10.7081 2.4565C11.0405 2.81282 11.2273 3.29609 11.2273 3.8ZM9.45455 0C10.3949 0 11.2967 0.400356 11.9616 1.11299C12.6265 1.82563 13 2.79218 13 3.8V15.2C13 16.2078 12.6265 17.1744 11.9616 17.887C11.2967 18.5996 10.3949 19 9.45455 19H3.54545C2.60514 19 1.70334 18.5996 1.03844 17.887C0.373538 17.1744 0 16.2078 0 15.2V3.8C0 2.79218 0.373538 1.82563 1.03844 1.11299C1.70334 0.400356 2.60514 0 3.54545 0H9.45455ZM4.43182 13.3C4.19674 13.3 3.97129 13.4001 3.80506 13.5782C3.63884 13.7564 3.54545 13.998 3.54545 14.25C3.54545 14.502 3.63884 14.7436 3.80506 14.9218C3.97129 15.0999 4.19674 15.2 4.43182 15.2H8.56818C8.80326 15.2 9.02871 15.0999 9.19493 14.9218C9.36116 14.7436 9.45455 14.502 9.45455 14.25C9.45455 13.998 9.36116 13.7564 9.19493 13.5782C9.02871 13.4001 8.80326 13.3 8.56818 13.3H4.43182Z" fill="white"/>
</svg>
